<?xml version="1.0" standalone="no"?>
<!DOCTYPE svg PUBLIC "-//W3C//DTD SVG 20010904//EN"
 "http://www.w3.org/TR/2001/REC-SVG-20010904/DTD/svg10.dtd">
<svg version="1.0" xmlns="http://www.w3.org/2000/svg"
 width="904.000000pt" height="904.000000pt" viewBox="0 0 904.000000 904.000000"
 preserveAspectRatio="xMidYMid meet">
<metadata>
Created by potrace 1.11, written by Peter Selinger 2001-2013
</metadata>
<g transform="translate(0.000000,904.000000) scale(0.100000,-0.100000)"
fill="#000000" stroke="none">
<path d="M280 7577 c-121 -17 -229 -119 -254 -239 -3 -12 -8 -34 -12 -48 -12
-42 -15 -5658 -4 -5702 29 -104 151 -141 470 -141 280 0 401 30 452 111 l23
37 1 993 c0 546 3 994 5 996 2 2 150 6 329 9 179 3 341 8 360 12 19 3 78 13
130 22 545 89 958 406 1199 917 65 138 135 359 166 521 3 17 8 41 10 55 10 49
14 76 20 125 3 28 7 59 9 70 24 124 25 652 1 774 -2 11 -6 41 -10 68 -35 268
-139 552 -282 767 -125 188 -337 373 -551 480 -69 35 -218 89 -272 100 -14 2
-54 11 -90 20 -36 8 -78 17 -95 20 -156 24 -169 25 -298 32 -176 9 -1246 10
-1307 1z m1180 -961 c183 -11 267 -33 375 -97 187 -111 321 -346 362 -634 12
-86 10 -425 -3 -505 -8 -47 -17 -101 -20 -120 -9 -58 -71 -234 -107 -307 -48
-95 -119 -186 -191 -244 -60 -49 -178 -113 -226 -123 -14 -3 -52 -12 -85 -19
-87 -20 -604 -24 -606 -5 -1 7 -2 472 -3 1033 l-1 1020 30 5 c39 6 339 4 475
-4z"/>
<path d="M3911 7578 c-161 -18 -267 -126 -308 -312 -14 -63 -16 -384 -17
-2878 l-1 -2807 21 -27 c33 -45 64 -62 149 -85 68 -19 108 -22 275 -22 214 -1
306 13 387 59 81 46 74 -199 71 2606 -2 1373 0 2494 4 2490 3 -4 27 -88 53
-187 159 -604 304 -1156 330 -1250 9 -33 19 -70 21 -83 2 -12 16 -64 30 -115
14 -50 27 -99 28 -107 6 -25 76 -293 86 -330 6 -19 179 -676 385 -1460 206
-784 380 -1442 387 -1463 21 -67 119 -129 238 -152 57 -11 389 -13 469 -3 125
15 212 68 242 147 9 21 744 2708 874 3191 18 69 81 298 138 510 141 517 278
1018 287 1055 35 136 62 230 68 241 4 7 7 -1118 7 -2500 l0 -2513 27 -35 c59
-77 191 -107 453 -103 240 4 357 35 401 108 19 31 19 94 19 2827 0 1537 -3
2818 -8 2847 -28 196 -124 314 -287 349 -37 8 -734 8 -812 0 -268 -27 -409
-186 -518 -581 -42 -155 -206 -724 -344 -1200 -78 -269 -150 -516 -178 -610
-16 -55 -31 -107 -33 -115 -2 -8 -49 -170 -104 -360 -103 -357 -230 -795 -353
-1223 -39 -136 -75 -244 -78 -240 -5 6 -354 1251 -431 1538 -4 17 -24 84 -43
150 -20 66 -38 129 -40 140 -2 11 -12 47 -22 80 -10 33 -19 65 -20 70 -3 14
-50 186 -73 265 -29 101 -92 323 -96 340 -2 8 -13 49 -24 90 -12 41 -23 82
-25 91 -2 8 -21 74 -41 145 -20 71 -45 161 -55 199 -10 39 -35 129 -55 200
-42 148 -40 142 -90 330 -79 303 -131 419 -235 526 -98 100 -214 150 -385 165
-101 9 -698 10 -774 2z"/>
</g>
</svg>
