<svg version="1" xmlns="http://www.w3.org/2000/svg" width="1205.333" height="1205.333" viewBox="0 0 904.000000 904.000000"><path d="M25.9 145.7c-4.6.7-13.2 6.6-17 11.7-4 5.3-6.7 12.4-7.8 20.8C.8 181.1.5 309.7.5 464c0 238.3.2 280.9 1.4 283 4.8 8.4 19.4 12.2 46.7 12.2 14.9 0 19.2-.4 30.9-2.8 5.8-1.2 12.6-5.6 14.5-9.5 1.9-3.5 1.9-7.8 2-102.4 0-54.4.1-98.9.2-99 .2-.2 14-.5 30.8-.9 16.8-.3 31.9-.8 33.5-1 1.7-.3 5-.7 7.5-1.1 15.3-1.8 34.6-6.7 45-11.2 31.5-13.7 51.2-29.2 69.6-54.9 17-23.9 30.7-60.6 34.9-93.9.3-2.8.8-6.4 1-8 1.3-8.4 1.7-16.1 2-39 .4-29.2-.8-43.8-5.7-65-7.1-31.6-21-58.4-40.5-78.2-22.2-22.6-44.3-34.4-78.3-41.7-9.5-2-11.2-2.3-26-4.2-5.2-.6-140.2-1.3-144.1-.7zM156.8 243c4.5.6 11.1 1.9 14.5 3 11.7 3.6 24.6 13.2 31.7 23.5 7.3 10.6 13.9 27.3 16 40.5.6 4.1 1.4 8.8 1.7 10.5 1.2 7.5.4 37.5-1.2 46.5-.2 1.4-.7 4.4-1 6.6-.3 2.3-1.5 7.3-2.6 11-1.1 3.8-2.1 7.3-2.2 7.9-.8 3-4.5 11.7-7.1 16.5-11.9 22.5-27.8 33.9-53.6 38.6-1.9.4-15.5.7-30.2.8-26.3.2-26.8.1-26.9-1.9-.1-2.6-.1-184.2 0-195.7.1-8.2.2-8.7 2.4-9 5.2-.7 50.9.2 58.5 1.2zM388 146.1c-12.1 2.1-20.9 10.8-26.2 25.9l-2.3 6.5-.3 283.1-.2 283.1 2.2 3.4c2.8 4.1 11.1 8.4 18.3 9.4 2.7.4 5.9.9 7 1.1 3.1.7 30.5.7 35.5 0 14.5-2 22.9-5.8 25.6-11.5 1.6-3.4 1.7-19.2 1.8-253.9 0-137.7.3-249.7.7-249 .4.7 1 2.9 1.4 4.8.4 1.9 2.5 10.2 4.7 18.5 2.2 8.2 4.1 15.7 4.3 16.5.3 1.5 21.7 82.4 27.9 105.5 6.3 23.6 8.1 30.3 16.3 61.5 1.9 7.4 5 19.3 6.9 26.5 1.9 7.1 3.6 13.7 3.9 14.6.4 2 6.8 26.1 9.7 36.9 2 7.5 5.7 21.8 8.4 32 2 7.8 1.8 6.9 6.9 26 2.5 9.6 4.8 18.2 5 19 .3 1.6 6.4 24.7 9 34.5.9 3.3 1.8 6.8 2 7.8 2.2 9.9 24.9 94.7 26 96.6 2.9 5.6 12.3 11.2 21 12.6 2.6.3 5.7.9 6.8 1.1 3.4.8 37.7.7 42.7-.1 10.9-1.6 19.3-6.3 22.5-12.6 1.5-2.7 14.9-51 16.1-57.3.3-1.6.7-3.3 1-3.7.2-.4 3.3-11.5 6.8-24.6 3.6-13.1 10.8-39.6 16.1-58.8 5.2-19.3 9.7-35.7 9.9-36.5.2-.8 1.4-5.1 2.6-9.5 1.2-4.4 2.8-10.5 3.6-13.5.8-3 2.9-10.3 4.5-16.2 1.7-6 3.2-11.6 3.4-12.5.2-1 4.5-16.7 9.5-34.8 5-18.2 15.8-57.8 24.1-88 8.2-30.3 15.6-57.5 16.4-60.5.9-3 3.8-13.8 6.5-24 5.1-18.7 5.7-21.1 8.5-31 .8-3 3.1-11.4 5.1-18.5 2-7.2 3.7-13.1 3.8-13.2.1-.1.2 112.4.2 250.1.1 246.7.1 250.4 2.1 253.7 4.9 8.5 17.1 12 41.8 12.1 21.1.1 34.6-2.4 41-7.4 5.9-4.6 5.5 15.7 5.5-288-.1-305.7.3-286.1-5.9-299.3-3.6-7.7-9.8-13.9-17-16.7-5.4-2.1-6.9-2.2-45.6-2.3-39-.1-47.1.4-56.3 3.4-17.3 5.4-30.6 25.8-39.2 60.1-1.2 4.7-5.3 19.3-9.2 32.5-9.5 32.6-16.7 57.7-18.8 65.5-1 3.6-2.7 9.4-3.9 13-2.5 8.1-33 113.8-33.6 116.5-.2 1.1-2.2 8.1-4.4 15.6-4.2 14.1-15.8 54.3-28.8 99.4-4.1 14.3-7.8 26.5-8.2 27.3-.9 1.5-1.5-.5-10.6-33.8-2.5-9.1-5.2-18.8-6-21.5-1.3-4.2-17.8-63.5-22-79-.8-2.8-3-10.9-5-18-2-7.2-5.2-18.6-7-25.5-3.8-14.2-32.8-118.7-34.5-124-2.4-7.8-2.9-9.6-3.4-12-.5-2.3-5.8-21.2-9.1-32.5-.8-2.8-3-11.1-4.9-18.5-7.3-28.7-13.1-41.4-23.6-52-7.2-7.2-15.8-12-25-13.9-3-.6-6.6-1.4-8-1.7-3.4-.8-81.6-1.1-86-.3z"/></svg>