<?xml version="1.0" standalone="no"?>
<!DOCTYPE svg PUBLIC "-//W3C//DTD SVG 20010904//EN"
 "http://www.w3.org/TR/2001/REC-SVG-20010904/DTD/svg10.dtd">
<svg version="1.0" xmlns="http://www.w3.org/2000/svg"
 width="2045.000000pt" height="2045.000000pt" viewBox="0 0 2045.000000 2045.000000"
 preserveAspectRatio="xMidYMid meet">
<metadata>
Created by potrace 1.11, written by Peter Selinger 2001-2013
</metadata>
<g transform="translate(0.000000,2045.000000) scale(0.100000,-0.100000)"
fill="#000000" stroke="none">
<path d="M14227 12964 c-1 -1 -51 -4 -112 -8 -60 -3 -121 -8 -135 -11 -14 -2
-47 -6 -75 -10 -131 -14 -422 -87 -540 -135 -97 -39 -228 -95 -261 -113 -23
-12 -66 -35 -95 -50 -79 -42 -291 -185 -389 -263 -184 -147 -449 -434 -577
-624 -60 -90 -123 -189 -123 -194 0 -2 -15 -30 -33 -63 -103 -184 -224 -528
-252 -718 -4 -22 -8 -47 -10 -55 -22 -80 -40 -304 -40 -500 0 -143 10 -334 19
-361 3 -8 7 -39 11 -69 15 -143 81 -394 149 -570 63 -163 189 -399 281 -525
82 -114 138 -186 141 -183 2 2 82 81 178 177 l175 174 -28 36 c-168 216 -308
516 -372 796 -38 165 -50 278 -54 485 -4 236 4 329 45 530 86 420 304 803 645
1132 441 425 973 634 1585 622 85 -2 175 -5 200 -8 82 -8 145 -17 170 -22 14
-3 36 -8 50 -10 291 -53 581 -184 885 -399 20 -14 31 -5 195 160 96 96 174
178 173 181 -8 25 -286 213 -433 292 -273 147 -645 261 -935 287 -33 3 -85 8
-115 11 -47 5 -318 12 -323 8z"/>
<path d="M252 12703 l3 -248 1193 -3 c655 -1 1192 -4 1192 -6 0 -1 -31 -59
-68 -127 -38 -68 -87 -158 -109 -199 -51 -94 -734 -1354 -778 -1435 -51 -95
-414 -764 -450 -830 -18 -33 -90 -166 -160 -295 -70 -129 -143 -263 -161 -297
-52 -96 -102 -189 -159 -293 -28 -52 -71 -131 -95 -175 -23 -44 -55 -102 -70
-130 -15 -27 -43 -79 -62 -115 -20 -36 -93 -171 -163 -300 -70 -129 -144 -266
-165 -305 -21 -38 -75 -137 -119 -219 -45 -82 -81 -150 -81 -152 0 -2 727 -4
1615 -4 l1615 0 -2 248 -3 247 -1191 5 -1191 5 49 90 c27 50 69 127 94 173 38
71 296 547 399 737 18 33 151 278 295 545 144 267 277 512 295 545 18 33 76
141 130 240 53 99 112 207 130 240 87 160 297 550 340 630 26 50 51 95 55 100
4 6 33 60 65 120 32 61 65 124 75 140 9 17 33 59 52 95 20 36 168 310 330 610
163 300 303 560 312 578 l17 32 -1616 0 -1615 0 2 -247z"/>
<path d="M4135 12942 l-30 -3 0 -2699 c0 -1794 3 -2700 10 -2701 15 -1 392 -1
445 0 l45 1 0 2700 0 2700 -75 1 c-41 0 -140 1 -220 2 -80 1 -159 1 -175 -1z"/>
<path d="M5430 12940 l-35 -5 0 -2698 0 -2699 230 0 c127 0 239 1 250 1 20 1
20 7 20 2701 l0 2700 -25 1 c-154 3 -412 3 -440 -1z"/>
<path d="M6906 12910 c-2 -5 0 -5332 3 -5360 1 -13 83 -15 683 -14 634 2 891
7 978 20 359 54 584 120 840 249 190 95 322 180 495 319 91 73 284 259 360
346 245 280 444 636 540 965 32 111 75 303 81 370 3 28 7 61 10 75 22 126 22
564 0 700 -2 14 -7 43 -10 65 -14 98 -19 127 -48 245 -36 150 -102 340 -163
468 -45 95 -143 273 -155 282 -4 3 -13 16 -20 30 -7 14 -44 68 -83 120 -258
351 -607 652 -977 844 -156 81 -418 176 -580 212 -19 4 -37 8 -40 9 -3 1 -25
5 -50 9 -133 24 -146 26 -290 42 -74 8 -1570 12 -1574 4z m1404 -490 c58 -2
132 -6 165 -10 33 -5 83 -11 110 -15 122 -15 300 -63 443 -118 452 -176 873
-546 1124 -987 117 -206 219 -497 243 -699 4 -30 8 -62 10 -72 16 -82 22 -374
10 -490 -9 -97 -15 -136 -30 -231 -51 -303 -223 -673 -433 -933 -74 -90 -247
-266 -339 -343 -140 -118 -366 -256 -538 -329 -131 -55 -328 -110 -475 -133
-41 -6 -86 -14 -100 -17 -14 -3 -267 -8 -562 -10 l-538 -5 -1 29 c0 15 -1
1003 -2 2195 l-2 2167 40 3 c41 3 688 1 875 -2z"/>
<path d="M17241 12910 c-4 -3 -7 -115 -6 -249 l0 -244 702 0 c506 0 703 -3
706 -11 2 -6 3 -1103 3 -2438 l-1 -2428 62 -1 c260 -2 425 -1 430 5 3 3 6
1091 5 2418 0 1327 1 2423 3 2434 l5 21 637 1 c351 0 644 1 651 1 9 1 12 58
12 249 l0 247 -1601 0 c-880 0 -1604 -2 -1608 -5z"/>
<path d="M16228 11836 l-177 -177 79 -104 c98 -131 166 -243 235 -388 47 -99
115 -283 129 -349 3 -12 10 -41 15 -63 5 -22 12 -53 15 -70 3 -16 8 -41 11
-55 36 -179 41 -571 10 -750 -2 -14 -9 -54 -15 -90 -30 -175 -118 -428 -207
-600 -172 -329 -466 -649 -793 -862 -300 -196 -604 -300 -1000 -343 -54 -6
-327 -6 -405 -1 -38 3 -132 15 -166 21 -9 2 -34 6 -55 9 -310 50 -652 202
-929 415 -43 33 -82 61 -86 61 -4 0 -85 -77 -179 -172 l-172 -172 38 -34 c194
-167 451 -326 684 -424 133 -56 326 -119 409 -133 19 -3 37 -8 41 -10 13 -8
198 -37 335 -52 142 -16 566 -7 669 13 12 2 41 7 66 10 25 3 52 7 60 9 8 2 30
7 48 10 123 21 309 76 457 135 688 274 1282 878 1548 1570 57 148 126 416 142
549 4 30 8 62 10 72 24 121 23 607 0 729 -3 13 -7 42 -10 65 -43 309 -153 628
-313 911 -63 110 -203 312 -277 399 l-41 47 -176 -176z"/>
</g>
</svg>
