<?xml version="1.0" standalone="no"?>
<!DOCTYPE svg PUBLIC "-//W3C//DTD SVG 20010904//EN"
 "http://www.w3.org/TR/2001/REC-SVG-20010904/DTD/svg10.dtd">
<svg version="1.0" xmlns="http://www.w3.org/2000/svg"
 width="276.000000pt" height="276.000000pt" viewBox="0 0 276.000000 276.000000"
 preserveAspectRatio="xMidYMid meet">
<metadata>
Created by potrace 1.14, written by Peter Selinger 2001-2017
</metadata>
<g transform="translate(0.000000,276.000000) scale(0.100000,-0.100000)"
fill="#000000" stroke="none">
<path d="M315 2303 c-44 -11 -95 -79 -95 -126 0 -12 13 -43 29 -68 28 -43 63
-82 322 -360 159 -171 174 -200 174 -334 0 -158 22 -126 -434 -619 -157 -170
-292 -317 -299 -327 -13 -19 22 -19 1367 -19 760 0 1381 2 1381 5 0 3 -111
128 -248 278 -405 445 -422 465 -449 523 -49 108 -40 232 25 328 20 30 126
150 236 267 249 267 259 280 253 338 -4 33 -13 52 -41 80 l-36 36 -283 3
c-289 3 -414 -6 -467 -33 -16 -8 -72 -55 -124 -104 -110 -104 -157 -127 -240
-118 -76 8 -108 27 -216 132 -66 64 -108 97 -135 105 -41 13 -678 25 -720 13z
m666 -266 c15 -12 110 -115 213 -229 103 -114 190 -209 195 -212 4 -3 110 100
235 230 l228 235 151 -3 c128 -3 152 -5 155 -19 1 -9 -117 -142 -285 -319
-158 -166 -289 -306 -291 -310 -1 -4 131 -154 295 -335 182 -200 299 -337 301
-351 l3 -24 -160 0 -160 0 -162 178 c-89 97 -198 214 -243 259 -77 80 -81 82
-99 65 -11 -9 -121 -126 -244 -260 l-224 -242 -150 0 c-164 0 -179 6 -141 55
11 14 151 167 311 341 261 282 290 317 278 334 -7 10 -124 139 -261 286 -312
337 -290 310 -283 328 5 14 30 16 159 16 144 0 155 -1 179 -23z"/>
</g>
</svg>
