<?xml version="1.0" standalone="no"?>
<!DOCTYPE svg PUBLIC "-//W3C//DTD SVG 20010904//EN"
 "http://www.w3.org/TR/2001/REC-SVG-20010904/DTD/svg10.dtd">
<svg version="1.0" xmlns="http://www.w3.org/2000/svg"
 width="2144.000000pt" height="2144.000000pt" viewBox="0 0 2144.000000 2144.000000"
 preserveAspectRatio="xMidYMid meet">
<metadata>
Created by potrace 1.14, written by Peter Selinger 2001-2017
</metadata>
<g transform="translate(0.000000,2144.000000) scale(0.100000,-0.100000)"
fill="#000000" stroke="none">
<path d="M10599 21364 c-62 -37 -127 -74 -144 -84 -16 -9 -133 -76 -260 -149
-126 -72 -237 -136 -245 -141 -8 -5 -60 -35 -115 -67 -55 -32 -113 -66 -130
-75 -16 -10 -50 -29 -75 -43 -25 -14 -52 -30 -60 -35 -13 -9 -185 -109 -278
-162 -99 -56 -184 -105 -337 -193 -93 -54 -296 -171 -450 -260 -272 -157 -635
-367 -665 -385 -8 -5 -84 -49 -168 -97 -84 -48 -160 -93 -170 -98 -9 -6 -39
-23 -67 -38 -27 -15 -57 -32 -65 -37 -8 -5 -114 -67 -235 -136 -121 -70 -229
-132 -240 -139 -11 -7 -23 -13 -27 -14 -4 -1 -43 -23 -85 -50 -43 -26 -85 -51
-93 -54 -8 -4 -31 -17 -50 -29 -19 -11 -44 -26 -55 -32 -18 -10 -577 -333
-615 -356 -8 -5 -132 -76 -275 -159 -143 -82 -402 -231 -575 -331 -386 -224
-372 -215 -418 -241 -85 -49 -253 -145 -337 -194 -270 -158 -386 -225 -391
-225 -3 0 -30 -16 -60 -35 -30 -19 -56 -35 -58 -35 -3 0 -322 -184 -346 -200
-8 -6 -22 -13 -30 -17 -8 -4 -37 -20 -65 -36 -48 -28 -266 -155 -337 -196 -18
-10 -60 -34 -93 -53 -33 -19 -168 -97 -300 -173 -132 -75 -244 -141 -250 -145
-5 -4 -30 -19 -55 -32 -39 -22 -133 -76 -377 -217 -34 -20 -174 -101 -312
-180 l-251 -144 0 -5358 0 -5357 138 -80 c75 -43 157 -90 182 -104 25 -14 86
-49 135 -78 134 -78 139 -81 285 -165 74 -43 191 -110 260 -150 69 -40 141
-82 160 -92 19 -11 78 -45 130 -75 52 -30 241 -139 420 -243 179 -103 381
-220 450 -260 69 -40 141 -82 160 -93 19 -11 76 -43 125 -72 50 -29 108 -62
130 -75 22 -12 112 -64 200 -115 88 -51 180 -104 205 -118 25 -14 57 -33 72
-43 14 -11 28 -19 31 -19 3 0 110 -61 237 -135 128 -74 234 -135 236 -135 2 0
36 -20 76 -44 85 -50 432 -251 498 -288 25 -14 101 -58 170 -98 118 -69 466
-271 538 -312 18 -10 93 -53 165 -95 73 -42 148 -85 167 -96 19 -11 49 -28 65
-38 17 -11 37 -22 45 -26 8 -4 47 -26 85 -48 39 -23 90 -53 115 -67 60 -33 97
-55 205 -118 50 -29 110 -64 134 -77 24 -14 167 -97 317 -184 151 -87 276
-159 279 -159 3 0 18 -9 33 -19 15 -10 135 -81 267 -157 132 -75 350 -201 485
-279 135 -78 265 -153 290 -167 25 -14 82 -47 128 -74 45 -27 90 -53 100 -59
158 -91 231 -132 247 -142 11 -7 27 -16 35 -20 8 -4 49 -27 90 -51 41 -25 89
-53 106 -62 16 -10 149 -86 295 -170 145 -84 278 -161 294 -170 17 -9 87 -50
155 -90 69 -40 141 -82 160 -93 19 -10 65 -37 102 -58 36 -22 71 -39 76 -39 8
0 63 29 112 60 8 5 40 24 70 41 30 18 96 55 145 84 96 55 606 349 665 383 19
11 107 61 195 112 88 51 174 101 190 110 17 10 161 93 320 185 160 92 391 226
515 298 124 71 299 172 390 225 91 52 188 108 215 124 28 16 57 33 65 38 43
26 645 372 695 400 22 12 45 26 50 30 6 4 31 19 56 33 25 14 133 76 240 137
231 134 510 295 559 322 19 11 40 24 45 28 6 4 31 19 57 33 25 14 106 60 180
103 73 42 207 120 298 172 91 52 266 153 390 225 124 72 235 135 247 141 13 6
23 14 23 19 0 4 5 7 11 7 6 0 49 23 97 51 48 29 105 62 127 74 22 13 81 46
130 75 50 29 110 64 135 78 25 14 99 56 165 95 66 38 140 81 164 95 25 14 67
38 93 53 27 16 53 29 58 29 4 0 10 3 12 8 2 4 73 47 158 96 85 49 171 98 190
109 19 11 53 30 75 42 22 12 102 59 179 104 76 44 140 81 143 81 3 0 17 8 31
19 15 10 47 29 72 43 63 35 461 265 725 418 217 126 273 158 328 189 16 9 36
21 45 26 47 28 247 143 407 235 99 57 187 109 195 116 13 11 15 619 15 5366
l0 5353 -235 137 c-129 75 -248 144 -265 153 -16 9 -37 20 -45 25 -30 19 -203
120 -205 120 -2 0 -64 36 -139 80 -76 44 -139 80 -140 80 -2 0 -34 19 -72 41
-37 23 -88 53 -113 67 -25 14 -58 32 -73 41 -107 63 -361 209 -398 229 -25 14
-69 40 -98 59 -29 18 -55 33 -58 33 -4 0 -122 68 -274 159 -19 11 -48 27 -65
36 -16 8 -46 24 -65 36 -34 21 -452 263 -520 301 -19 11 -91 53 -160 93 -69
40 -345 200 -615 355 -269 155 -546 315 -615 355 -69 40 -141 82 -160 93 -128
72 -567 326 -575 332 -5 4 -35 21 -65 38 -30 16 -105 59 -167 95 -62 36 -132
77 -155 90 -24 13 -173 100 -333 192 -159 92 -438 253 -620 358 -181 104 -378
218 -438 253 -59 35 -109 64 -112 64 -3 0 -34 18 -70 40 -36 22 -68 40 -71 40
-2 0 -17 8 -32 19 -15 10 -90 55 -167 99 -77 44 -241 138 -365 210 -124 71
-241 139 -260 150 -19 11 -118 68 -220 127 -102 59 -291 168 -420 242 -228
131 -339 196 -711 411 -96 56 -177 102 -180 102 -3 0 -57 -30 -120 -66z m307
-1365 c45 -27 87 -49 93 -49 6 0 11 -4 11 -10 0 -5 4 -10 9 -10 5 0 67 -34
136 -75 70 -41 129 -75 131 -75 2 0 41 -22 86 -49 144 -85 321 -188 368 -213
25 -14 86 -49 135 -78 50 -29 106 -62 125 -72 83 -47 941 -543 1000 -578 36
-21 77 -44 93 -51 15 -7 27 -16 27 -21 0 -4 5 -8 10 -8 9 0 130 -68 297 -166
17 -11 62 -37 100 -58 94 -54 368 -213 406 -237 18 -10 39 -22 47 -26 8 -4
197 -112 420 -241 223 -129 421 -244 440 -254 19 -11 91 -53 160 -93 69 -39
145 -83 170 -97 25 -14 99 -57 165 -95 102 -60 436 -253 543 -314 18 -11 93
-54 165 -96 749 -432 981 -566 1012 -582 17 -9 32 -19 33 -23 2 -5 7 -8 12 -8
7 0 174 -94 230 -130 8 -5 42 -24 75 -43 99 -56 124 -71 255 -147 68 -40 140
-81 158 -92 63 -35 167 -95 292 -168 380 -220 636 -368 685 -395 l55 -30 0
-4696 0 -4695 -42 -25 c-23 -13 -55 -31 -70 -39 -15 -8 -70 -39 -120 -69 -51
-30 -113 -65 -138 -79 -25 -14 -57 -33 -72 -43 -14 -11 -28 -19 -31 -19 -3 0
-54 -29 -114 -63 -59 -35 -200 -117 -313 -182 -113 -65 -245 -141 -295 -170
-72 -42 -517 -299 -650 -375 -16 -10 -118 -68 -225 -130 -202 -117 -545 -315
-615 -355 -22 -13 -166 -96 -320 -185 -154 -89 -300 -174 -325 -187 -25 -14
-81 -47 -125 -73 -44 -26 -116 -68 -160 -93 -44 -25 -147 -84 -230 -132 -82
-48 -166 -96 -185 -107 -96 -55 -629 -364 -655 -380 -16 -10 -37 -21 -45 -25
-8 -4 -80 -45 -160 -91 -165 -97 -197 -115 -260 -150 -25 -14 -62 -36 -82 -49
-21 -12 -40 -23 -44 -23 -3 0 -26 -13 -51 -30 -24 -16 -46 -30 -48 -30 -2 0
-95 -53 -207 -118 -112 -65 -210 -121 -218 -125 -8 -4 -24 -13 -35 -20 -69
-42 -147 -87 -151 -87 -2 0 -23 -11 -45 -26 -22 -14 -55 -33 -72 -43 -18 -10
-77 -44 -132 -76 -160 -93 -616 -356 -649 -375 -17 -9 -103 -59 -191 -110 -88
-51 -263 -152 -390 -225 -126 -73 -318 -183 -425 -245 -107 -62 -206 -119
-219 -126 -27 -14 -55 -2 -189 83 -29 18 -56 33 -60 33 -4 0 -23 11 -42 23
-19 13 -62 39 -95 57 -53 29 -194 111 -615 355 -69 40 -141 81 -160 92 -19 11
-255 147 -525 303 -269 156 -546 315 -615 355 -69 40 -147 85 -175 102 -27 16
-57 32 -65 36 -8 4 -31 17 -50 28 -19 12 -156 91 -305 176 -148 86 -282 164
-297 174 -15 11 -29 19 -32 19 -3 0 -69 38 -148 84 -187 109 -789 456 -853
491 -27 16 -81 47 -120 70 -38 23 -200 117 -360 209 -159 92 -297 172 -305
176 -8 5 -46 27 -84 50 -37 22 -69 40 -71 40 -1 0 -69 39 -151 86 -141 82
-241 140 -316 183 -18 10 -121 69 -228 131 -107 62 -209 121 -225 130 -17 9
-87 50 -155 90 -69 40 -134 78 -145 84 -11 6 -141 81 -288 166 -147 85 -285
164 -305 176 -20 11 -97 55 -169 97 -73 42 -190 110 -260 151 -119 68 -195
112 -590 340 l-153 88 -1 42 c-1 51 -1 9278 0 9324 1 22 7 35 19 39 9 4 41 21
70 40 29 18 54 33 56 33 3 0 50 27 106 60 56 33 103 60 105 60 3 0 45 25 95
55 50 30 93 55 95 55 2 0 37 19 77 43 140 83 713 415 1283 742 132 76 245 141
250 145 6 4 30 18 55 32 48 27 285 163 310 179 31 19 436 252 465 267 17 9 53
31 82 49 29 18 54 33 57 33 2 0 37 19 78 43 75 45 520 302 586 339 47 26 274
158 371 215 40 23 77 43 82 43 5 0 9 5 9 10 0 6 5 10 11 10 6 0 49 23 97 51
48 29 102 60 120 71 79 44 289 165 446 256 49 29 90 52 92 52 2 0 47 26 101
58 54 33 190 112 303 177 113 65 264 152 335 193 305 176 442 256 475 274 19
11 136 79 260 150 124 72 243 140 265 153 22 12 56 32 75 43 19 11 103 59 185
107 83 48 236 137 340 197 105 60 197 114 205 119 8 5 53 31 100 57 47 27 146
84 220 127 74 43 155 89 180 103 25 13 49 28 54 33 10 9 66 -19 202 -102z"/>
<path d="M4718 14677 c38 -40 103 -106 143 -148 109 -112 370 -382 655 -675
139 -142 292 -300 340 -351 49 -50 197 -202 329 -338 287 -296 339 -349 655
-675 135 -139 296 -305 358 -369 62 -64 211 -217 330 -340 119 -123 251 -259
292 -301 41 -43 190 -196 330 -340 140 -145 263 -271 273 -280 10 -10 20 -31
23 -46 5 -32 72 39 -1092 -1141 -309 -312 -673 -681 -810 -820 -137 -139 -483
-489 -769 -779 -286 -289 -603 -610 -703 -713 -101 -102 -261 -264 -355 -359
l-172 -172 2085 3 c1147 1 2099 6 2115 10 17 4 64 14 105 23 126 26 200 52
325 116 150 76 225 137 497 409 372 370 396 390 557 469 415 205 912 129 1249
-191 31 -30 113 -116 182 -190 211 -227 341 -351 431 -411 84 -55 213 -124
274 -146 17 -5 39 -14 50 -18 24 -9 20 -8 72 -22 23 -7 66 -17 95 -22 29 -6
64 -13 78 -17 24 -7 3436 -16 3964 -11 l259 3 -69 71 c-67 70 -482 498 -634
654 -163 168 -589 607 -665 685 -44 46 -190 196 -325 335 -135 139 -281 289
-325 335 -44 46 -154 160 -245 253 -196 201 -630 648 -750 772 -47 48 -195
201 -330 340 -411 423 -441 454 -446 477 -3 12 -4 27 -2 32 1 6 233 243 513
527 281 284 595 603 699 708 173 176 1081 1096 1496 1516 340 344 1185 1201
1188 1204 5 6 -4133 -1 -4166 -7 -18 -3 -51 -9 -72 -12 -122 -18 -295 -79
-418 -147 -136 -75 -236 -160 -521 -445 -342 -342 -420 -399 -639 -473 -239
-80 -544 -73 -751 18 -20 9 -38 16 -41 17 -26 6 -96 44 -167 91 -90 58 -196
160 -403 384 -145 158 -208 220 -290 284 -188 150 -388 235 -655 282 -22 4
-980 8 -2129 9 l-2089 3 71 -71z"/>
</g>
</svg>
